HIERARCHY
ROOT Hips
{
  OFFSET -31.5692 30.0904 122.763
  CHANNELS 6 Xposition Yposition Zposition Zrotation Xrotation Yrotation
  JOINT LeftUpLeg
  {
    OFFSET 8.64259 1.95398 -2.38835
    CHANNELS 3 Zrotation Xrotation Yrotation
    JOINT LeftLeg
    {
      OFFSET 43.7702 0 0
      CHANNELS 3 Zrotation Xrotation Yrotation
      JOINT LeftFoot
      {
        OFFSET 40.6238 0 0
        CHANNELS 3 Zrotation Xrotation Yrotation
        JOINT LeftToeBase
        {
          OFFSET 12.7242 0 0
          CHANNELS 3 Zrotation Xrotation Yrotation
          End Site
          {
            OFFSET 0 0 0
          }
        }
      }
    }
  }
  JOINT RightUpLeg
  {
    OFFSET -8.2249 1.95398 -2.59336
    CHANNELS 3 Zrotation Xrotation Yrotation
    JOINT RightLeg
    {
      OFFSET 43.5653 0 0
      CHANNELS 3 Zrotation Xrotation Yrotation
      JOINT RightFoot
      {
        OFFSET 40.6238 0 0
        CHANNELS 3 Zrotation Xrotation Yrotation
        JOINT RightToeBase
        {
          OFFSET 12.7242 0 0
          CHANNELS 3 Zrotation Xrotation Yrotation
          End Site
          {
            OFFSET 0 0 0
          }
        }
      }
    }
  }
  JOINT Spine
  {
    OFFSET 0.165834 0.87714 6.61349
    CHANNELS 3 Zrotation Xrotation Yrotation
    JOINT Spine1
    {
      OFFSET 7.38963 1.71661e-005 0
      CHANNELS 3 Zrotation Xrotation Yrotation
      JOINT Spine2
      {
        OFFSET 11.9445 1.14441e-005 0
        CHANNELS 3 Zrotation Xrotation Yrotation
        JOINT Spine3
        {
          OFFSET 14.7254 4.19617e-005 0
          CHANNELS 3 Zrotation Xrotation Yrotation
          JOINT Spine4
          {
            OFFSET 10.9679 0 0
            CHANNELS 3 Zrotation Xrotation Yrotation
            JOINT RightShoulder
            {
              OFFSET 2.46616 -1.6653 3.69651
              CHANNELS 3 Zrotation Xrotation Yrotation
              JOINT RightArm
              {
                OFFSET 13.0012 0 0
                CHANNELS 3 Zrotation Xrotation Yrotation
                JOINT RightForeArm
                {
                  OFFSET 28.7848 1.62311e-005 0
                  CHANNELS 3 Zrotation Xrotation Yrotation
                  JOINT RightHand
                  {
                    OFFSET 26.5688 1.62095e-005 0
                    CHANNELS 3 Zrotation Xrotation Yrotation
                    End Site
                    {
                      OFFSET 0 0 0
                    }
                  }
                }
              }
            }
            JOINT LeftShoulder
            {
              OFFSET 2.38034 -1.29275 -3.7523
              CHANNELS 3 Zrotation Xrotation Yrotation
              JOINT LeftArm
              {
                OFFSET 16.3182 6.07031e-005 0
                CHANNELS 3 Zrotation Xrotation Yrotation
                JOINT LeftForeArm
                {
                  OFFSET 27.0901 0 0
                  CHANNELS 3 Zrotation Xrotation Yrotation
                  JOINT LeftHand
                  {
                    OFFSET 24.5451 1.51738e-005 0
                    CHANNELS 3 Zrotation Xrotation Yrotation
                    End Site
                    {
                      OFFSET 0 0 0
                    }
                  }
                }
              }
            }
            JOINT Neck
            {
              OFFSET 5.0226 -0.0266342 0
              CHANNELS 3 Zrotation Xrotation Yrotation
              JOINT Head
              {
                OFFSET 6.69364 2.86102e-005 0
                CHANNELS 3 Zrotation Xrotation Yrotation
                End Site
                {
                  OFFSET 0 0 0
                }
              }
            }
          }
        }
      }
    }
  }
}
MOTION
Frames:	12
Frame Time:	0.0416667
24.722 96.9304 -46.4017 -98.511 -29.0187 -100.396 -173.638 7.24987 78.8658 -39.6267 11.9536 -2.54354 76.8433 11.4285 3.65432 15.4304 -9.87268 6.70653 179.697 15.0283 86.8205 -88.125 -11.5868 -7.1842 65.1622 -2.13463 -3.35874 17.9644 3.24856 6.04502 1.05622 7.53673 -88.8702 11.7959 2.63206 1.96305 0.126447 2.71589 1.84528 -22.411 1.92058 2.66314 -2.39836 1.9206 2.66315 91.0555 -24.6052 -106.732 47.309 -6.38707 0.908196 11.1561 -26.4751 -4.64947 -19.7783 -0.448284 -7.86413 -85.4707 -52.561 85.8817 -8.29983 4.03225 -18.1429 -2.01317 4.87364 0.0617003 5.97709 -0.194093 -8.74161 1.79048 2.75358 -6.98745 -8.43734 4.24084 -9.85974 
15.1327 104.998 -40.9552 -103.397 -33.027 -96.0007 -174.87 -2.80844 89.8269 -29.5067 12.0912 2.13351 63.4204 1.8019 1.54719 8.23177 -13.7947 5.62033 -178.6 22.7115 97.0538 -78.8865 -3.467 -4.90962 70.0286 -4.86814 -4.13767 17.1378 3.76063 5.5123 -0.0352104 7.74677 -90.0262 11.3855 -0.0822802 -0.043116 -0.285557 -0.0840892 -0.0394588 -22.8204 -0.0655278 -0.0658662 -2.80771 -0.0654923 -0.0658628 90.6484 -24.8553 -107.501 44.6789 -6.21091 4.94562 9.84778 -24.152 -7.83986 -18.3499 -0.0476423 -10.4624 -86.6237 -46.5938 83.2353 -12.2922 8.89432 -19.3501 -4.36399 2.97089 -0.879937 4.61118 -0.380579 -11.6819 -11.3992 4.60732 -8.33341 -7.35844 5.15752 -5.75413 
6.48576 108.406 -35.485 -102.889 -41.6217 -92.9569 -171.844 -4.67455 90.8507 -23.8274 4.75749 -0.172827 62.6729 0.994019 -2.30443 9.82344 -12.4405 5.07342 -179.062 29.4637 98.9845 -65.8011 -5.59388 -3.35709 71.3588 -5.69653 -3.05007 18.4767 3.34559 5.00134 -1.00527 7.91757 -90.6517 11.028 -2.30316 -1.0759 -0.641229 -2.3483 -0.97346 -23.1845 -1.87336 -1.71846 -3.17188 -1.87336 -1.71846 91.1487 -26.275 -105.856 43.6238 -4.61548 7.06187 8.97417 -21.8249 -7.88365 -17.9058 0.142872 -11.3814 -88.4362 -39.7885 78.9186 -15.7758 12.5068 -28.0573 -6.56969 7.63549 -0.00980763 6.80561 -0.43836 -12.7874 -11.1616 3.67963 -12.2643 -8.28964 4.27781 -1.37641 
-2.16319 106.721 -29.8806 -101.793 -49.2954 -89.3927 -171.181 -3.69462 92.6419 -18.2004 7.80083 -1.10712 60.9282 -0.567159 -6.82041 17.9231 -9.6192 9.14172 -179.799 29.814 99.507 -46.6014 -11.6152 -1.40294 71.3035 -6.77832 -3.51002 22.2253 1.80058 4.7876 -1.73144 8.06417 -91.2589 10.7061 -4.02783 -2.13246 -0.959993 -4.11774 -1.95293 -23.5157 -3.20095 -3.2447 -3.50309 -3.20094 -3.2447 90.978 -28.9371 -105.192 40.9982 -3.34854 8.81413 9.19599 -20.9762 -6.49795 -17.3316 0.118911 -11.2288 -89.6988 -42.6075 77.5027 -12.741 13.0879 -36.3199 -7.74169 10.8196 0.00710566 8.70681 -0.304377 -11.1935 -6.74762 1.80767 -14.8711 -10.4346 2.97187 0.948119 
-11.7365 100.813 -24.579 -101.679 -54.9799 -86.8753 -170.266 -3.31865 96.5674 -26.2863 12.0161 1.14458 78.5372 10.1695 -3.73086 13.8136 -9.02687 3.08613 -179.606 29.9381 100.901 -29.8016 -12.129 0.466131 69.3393 -6.33054 -2.9122 23.2497 1.45607 4.43496 -1.99377 8.30897 -91.5163 10.1961 -4.6639 -2.61057 -1.46869 -4.77424 -2.4025 -24.028 -3.66414 -3.89187 -4.01538 -3.66417 -3.89188 91.3296 -31.8822 -103.512 39.0911 -2.82159 9.52391 9.38731 -23.1804 -6.189 -15.9032 0.091386 -12.2326 -90.6666 -43.447 76.1531 -14.7385 12.8742 -42.8325 -6.95794 17.8357 -0.0113448 6.86691 0.0544835 -11.8052 -2.61899 -0.218958 -19.9357 -9.6798 1.99276 2.60593 
-22.3998 95.7675 -17.1658 -105.273 -54.3777 -91.5493 -165.061 -20.4705 99.127 -19.6182 11.632 0.95008 94.0323 19.6349 -7.69129 17.9879 -9.32948 8.53968 -179.247 26.7258 101.272 -20.2555 -9.91928 0.911216 66.2778 -4.34193 -1.96764 23.9069 1.22473 4.23469 -2.07256 8.59387 -91.0096 9.65849 -4.58819 -1.64828 -2.00508 -4.65629 -1.4444 -24.582 -3.88059 -2.95237 -4.56937 -3.88061 -2.95238 92.4122 -35.1622 -100.448 37.4678 -1.76127 6.72254 9.38353 -27.2523 -4.63068 -17.9317 -0.490192 -7.97647 -91.5224 -44.3891 75.0374 -22.0643 10.5754 -37.4193 -2.28016 30.5956 -0.0087704 6.09754 0.295351 -13.4604 -0.733957 0.0965333 -24.1324 -7.96853 3.23968 2.43775 
-33.4819 93.6796 -6.60828 -101.211 -52.2903 -88.0384 -161.271 -25.9966 103.073 -18.4599 13.8564 0.24319 82.6343 14.2374 -1.58218 33.8042 -0.849417 11.1303 -179.874 25.3039 103.344 -20.8433 -4.64913 2.28217 66.1743 -3.92856 -1.68151 23.0361 1.75881 3.61634 -1.87065 7.95055 -91.1207 10.94 -4.24272 -1.82768 -0.725023 -4.31902 -1.63893 -23.2906 -3.49736 -3.01908 -3.27792 -3.49734 -3.01908 91.4448 -34.3594 -102.488 39.0316 -0.141073 10.1799 6.81948 -16.3024 -5.96049 -14.4116 0.216683 -11.8656 -91.4163 -47.9103 76.1076 -25.4392 11.1129 -30.2786 -2.81938 39.8307 -0.0111281 5.54932 0.802631 -12.9236 -0.597771 0.221762 -21.0465 -7.53518 3.01805 1.33486 
-42.8852 92.3073 3.56953 -100.336 -52.9003 -89.3009 -163.912 -20.286 103.217 -37.3576 16.324 3.04222 67.2612 3.98115 -1.29134 35.9282 0.498006 10.7257 175.977 29.559 102.212 -40.2471 -1.20267 4.04661 64.1684 -0.0297543 -2.0541 16.8003 4.76465 2.87068 -1.50101 7.85265 -91.3356 11.1278 -3.60755 -2.30759 -0.539891 -3.70557 -2.14649 -23.0839 -2.74755 -3.28499 -3.07125 -2.74758 -3.28499 90.4127 -32.9786 -104.877 35.9503 -1.95285 6.09998 10.0048 -18.5744 -1.78609 -15.3525 -0.125353 -9.13013 -91.2529 -49.1668 76.6578 -26.0629 14.4899 -24.2427 -6.33342 28.2047 -0.0103784 6.42075 0.545415 -10.9229 14.173 -1.91691 -11.0822 -11.71 0.949961 0.51525 
-50.3661 91.3424 11.3691 -99.9781 -51.1231 -90.1802 -168.672 -2.15346 90.0477 -72.3283 23.9848 4.7761 61.3947 -0.00547539 0.547632 8.31546 -12.4313 3.56935 173.748 27.9453 103.46 -52.6998 -4.29498 3.64169 73.5033 -7.57413 -4.08985 20.1162 3.64785 1.52688 -0.348488 7.94667 -91.3122 10.9552 -1.30141 -2.49036 -0.717452 -1.40971 -2.43072 -23.2338 -0.493212 -2.76614 -3.22115 -0.493205 -2.76614 90.5429 -29.0413 -106.061 36.2018 -4.0183 -0.790276 10.9746 -23.0417 -2.3834 -15.0013 -0.263168 -9.48921 -90.9903 -52.204 77.7524 -19.6199 10.7358 -19.2275 -5.98553 25.3971 -0.00871797 9.98386 0.161401 -10.6205 22.6911 -1.26852 3.2196 -10.2059 -2.02794 -3.48419 
-57.0827 95.4412 18.2834 -100.752 -51.4869 -95.9629 -172.988 18.6721 94.644 -86.2167 16.6868 4.33028 65.4751 2.42936 3.10758 6.52187 -13.0683 2.82385 172.834 17.1495 97.7722 -46.039 -7.3426 2.86001 74.0274 -8.80083 -5.47093 22.3745 2.27452 2.78507 0.915 7.86463 -90.4083 11.1559 1.63104 -0.976152 -0.514494 1.58651 -1.04701 -23.0568 1.849 -0.440707 -3.04419 1.849 -0.440716 91.7613 -22.8346 -105.934 40.5344 -8.16249 -4.82289 11.782 -35.6077 -6.0446 -12.4252 -0.475544 -13.0624 -89.5813 -54.5241 80.2502 -13.8066 5.02881 -16.9388 -3.02271 18.7712 -0.0314766 9.79576 0.159652 -8.37367 17.5168 -3.54563 6.55553 -9.7036 -4.89782 -8.42966 
-64.2516 103.326 25.644 -102.056 -47.9339 -102.699 -172.395 27.4151 85.4142 -74.8032 6.61957 1.5721 71.0319 5.28207 1.60052 6.35218 -14.5217 4.9874 174.114 4.2857 91.5046 -31.4833 -11.4927 -1.32041 60.9958 0.744023 -2.08733 22.8245 1.57642 4.67223 1.93404 7.99906 -89.2254 10.8583 4.20886 1.14646 -0.806139 4.25524 0.959788 -23.3812 3.66957 2.35974 -3.3686 3.66958 2.35973 92.3852 -21.4504 -105.086 41.5343 -13.1012 -10.2857 15.3813 -45.374 -5.0642 -12.302 -0.755482 -13.9384 -88.6928 -54.4968 81.5157 -8.95474 1.85048 -10.4662 -0.659907 26.0453 0.00111537 4.50519 0.344124 -12.453 11.8056 -5.99345 0.0189516 -10.0551 -5.24163 -10.952 
-70.9106 106.369 32.7925 -98.7858 -43.1823 -102.394 -174.365 33.2121 82.9042 -59.6052 6.99027 -0.238075 75.2314 8.18582 -0.639286 7.8494 -14.6025 6.60673 175.591 1.41965 90.3528 -29.6941 -22.5577 -5.14812 60.1548 1.15066 -0.741919 21.1085 2.51033 3.95593 2.37382 7.95682 -88.6787 10.91 5.33697 2.12509 -0.751355 5.42531 1.88757 -23.3382 4.45158 3.63265 -3.32559 4.45157 3.63265 90.4613 -18.9406 -110.754 42.0658 -16.5521 -12.3667 15.4642 -46.239 -6.9177 -14.5776 -0.789952 -12.4192 -89.1075 -53.978 80.8262 -4.96476 8.46585 -2.99821 -4.29965 20.7008 -1.56382 5.62371 -0.315539 -16.5491 11.5795 -5.37951 -0.0855151 -9.81251 -4.51153 -13.4264 
